<?xml version="1.0" encoding="utf-8"?>
<!-- Svg Vector Icons : http://www.onlinewebfonts.com/icon -->
<!DOCTYPE svg PUBLIC "-//W3C//DTD SVG 1.1//EN" "http://www.w3.org/Graphics/SVG/1.1/DTD/svg11.dtd">
<svg version="1.1" xmlns="http://www.w3.org/2000/svg" xmlns:xlink="http://www.w3.org/1999/xlink" x="0px" y="0px" viewBox="0 0 1000 1000" enable-background="new 0 0 1000 1000" xml:space="preserve">
<metadata> Svg Vector Icons : http://www.onlinewebfonts.com/icon </metadata>
<g><path d="M452.1,368c14-30.8-3.8-19.2-3.8-19.2S386,450.6,232.7,450.6c-24.3,0-46.2-2.6-66-7c-8.6-28.7-20.3-50.7-37.9-54c0,0,0.8,17.9,2.3,43.5c-79-29.4-111.9-85.8-111.9-85.8s-13.5-16.8-7.7,8.7c4.4,19.3,37.6,95.7,123.2,131.4c3.7,48.3,9,99.9,15.8,117.3c14,35.6,31.3,39,83.7,39s80.8-4.3,88.5-34.6c7.7-30.3,15.9-99.1,14.9-102.5s0.4-11.8-14,0.5c-18.9,16.2-39.1,81.8-44.6,88c-5.8,6.7-47.5,16.5-71.4,7.4c-12.8-9.2-19.1-54.8-27.8-101.4c16.3,3.2,34.1,5,53.3,5C393.4,506.1,438.2,398.8,452.1,368z"/><path d="M519.6,490.5c-5.8-3.1-12.3-5.5-19.5-7.1c-7.2-1.6-14.5-2.4-21.8-2.4c-7.3,0-14.6,0.8-21.8,2.4c-7.2,1.6-13.7,4-19.5,7.1c-5.8,3.1-10.5,7.1-14,12c-3.5,4.8-5.3,10.4-5.3,16.7v82.6c0,6.4,1.8,12,5.3,16.8c3.5,4.8,8.2,8.7,14,11.9c5.8,3.2,12.3,5.5,19.5,7.1c7.2,1.6,14.5,2.4,21.8,2.4c1.5,0,3.1,0,4.6-0.1c1.3,5.7,3.8,10,6.2,12.9c2.8,3.4,7,5.4,11.5,5.4h30.6c2.4,0,4.4-2,4.4-4.4V636c0-2.4-2-4.5-4.4-4.4c-2.4,0.1-5.4-0.1-7.7-1c-1-0.4-1.7-1.1-2.2-1.8c6.9-4.9,12.4-11,12.4-11c3.5-4.5,5.3-9.9,5.3-16v-82.6c0-6.3-1.8-11.9-5.3-16.7C530,497.6,525.4,493.7,519.6,490.5z M502.7,601.7v0.4c0,0-0.4,13.4-16.7,14.5c-2.1,0.6-4.7,0.9-7.8,0.9c-6.6,0-12.4-1.3-17.2-3.8c-4.8-2.6-7.3-6.6-7.3-12v-82.6c0-5.4,2.4-9.4,7.3-12c4.8-2.6,10.6-3.8,17.2-3.8c6.6,0,12.4,1.3,17.2,3.8c4.8,2.6,7.3,6.6,7.3,12L502.7,601.7L502.7,601.7z"/><path d="M571.9,482.3h36.2v156.3h-36.2V482.3z"/><path d="M731.8,576.5h-0.7l-54.6-94.2h-34.8v156.3h36.2v-94h0.7l55.3,94h34V482.3h-36.2V576.5z"/><path d="M801.7,482.3h36.2v156.3h-36.2V482.3z"/><path d="M953.8,482.3v119c0,5.6-2.1,9.7-6.4,12.3c-4.3,2.6-9.6,4-16,4s-11.7-1.3-16-4c-4.3-2.6-6.4-6.7-6.4-12.3v-119H873v121.2c0,5.1,1.5,9.9,4.6,14.3c3.1,4.4,7.3,8.2,12.6,11.5c5.3,3.3,11.5,5.9,18.6,7.8c7.1,1.9,14.7,2.9,22.7,2.9c8,0,15.6-1,22.7-2.9c7.1-1.9,13.3-4.5,18.6-7.8c5.3-3.3,9.5-7.1,12.6-11.5c3.1-4.4,4.6-9.1,4.6-14.3V482.3H953.8z"/></g>
</svg>